<svg id="Layer_1" data-name="Layer 1" xmlns="http://www.w3.org/2000/svg" viewBox="0 0 1000 1000"><defs><style>.cls-1,.cls-2{fill:#fff;}.cls-2{font-size:668.43px;font-family:OptimusPrinceps, OptimusPrinceps;}</style></defs><title>Artboard 1</title><path class="cls-1" d="M299.74,331.19c.36-10.2,2.31-20.21,3.68-30.31a548,548,0,0,1,13.42-67.32c8.09-30.48,18.32-60.18,32.17-88.62a237.53,237.53,0,0,0,21.16-67.71c.87-5.56,1.48-11.17,2.5-16.72a18.19,18.19,0,0,1,5.55-10.63c4.93-4.57,8.15-4.77,12.9.23A140.6,140.6,0,0,1,411.5,78.35c15.13,27,22.59,56.48,27.68,86.7a404.67,404.67,0,0,1,4.92,44.39c.5,8.75.34,17.58,1.61,26.31,1,6.59-2.65,11.25-7.83,14.51-7.46,4.69-15.34,8.71-22.78,13.41a155.85,155.85,0,0,0-42.35,39.08c-16.69,22.48-25.92,48-32,75-1.3,5.82-3.13,6.45-8.06,3.12-14.48-9.78-25.35-22.5-31.64-39C299.73,338.4,299.68,334.84,299.74,331.19Z"/><path class="cls-1" d="M521.41,85.29c4.67.12,10.43,2.8,15,7.76,13.09,14.27,25.88,28.79,36.68,44.91a334.79,334.79,0,0,1,50,119.94c1.3,6.3,1.46,12.8,3.56,19a2.58,2.58,0,0,1-.78,3c-1.47,1.11-3,.7-4.42-.15-3.65-2.18-7.27-4.41-10.93-6.58-23.11-13.67-47-25.84-72.53-34.23-7.33-2.41-11-6.52-12.66-14-6.39-29.34-19-55.95-36.53-80.25-4.06-5.61-4.88-10.84-1.64-17.49,5.17-10.63,10.46-21.21,15.7-31.81C506,89,512.2,85.29,521.41,85.29Z"/><text class="cls-2" transform="translate(235.97 789.15)">A</text></svg>